PathFileType	4	(X/Y/Z)	C:/Users/opensim2020/Desktop/walking_exp_matlab/subject06_walking14_straight_02.trc	
DataRate	CameraRate	NumFrames	NumMarkers	Units	OrigDataRate	OrigDataStartFrame	OrigNumFrames	
100.00	100.00	8	45	mm	100.00	1748	192	
Frame#	Time	LFHD			RFHD			LBHD			RBHD			C7			T10			CLAV			STRN			RBAK			LSHO			LUPA			LELB			LFRM			LWRA			LWRB			LFIN			RSHO			RUPA			RELB			RFRM			RWRA			RWRB			RFIN			LASI			RASI			LPSI			RPSI			LTHI			LKNE			LTIB			LANK			LHEE			LTOE			RTHI			RKNE			RTIB			RANK			RHEE			RTOE			*39			*40			*41			*42			*43			*44			
		X1	Y1	Z1	X2	Y2	Z2	X3	Y3	Z3	X4	Y4	Z4	X5	Y5	Z5	X6	Y6	Z6	X7	Y7	Z7	X8	Y8	Z8	X9	Y9	Z9	X10	Y10	Z10	X11	Y11	Z11	X12	Y12	Z12	X13	Y13	Z13	X14	Y14	Z14	X15	Y15	Z15	X16	Y16	Z16	X17	Y17	Z17	X18	Y18	Z18	X19	Y19	Z19	X20	Y20	Z20	X21	Y21	Z21	X22	Y22	Z22	X23	Y23	Z23	X24	Y24	Z24	X25	Y25	Z25	X26	Y26	Z26	X27	Y27	Z27	X28	Y28	Z28	X29	Y29	Z29	X30	Y30	Z30	X31	Y31	Z31	X32	Y32	Z32	X33	Y33	Z33	X34	Y34	Z34	X35	Y35	Z35	X36	Y36	Z36	X37	Y37	Z37	X38	Y38	Z38	X39	Y39	Z39	X40	Y40	Z40	X41	Y41	Z41	X42	Y42	Z42	X43	Y43	Z43	X44	Y44	Z44	X45	Y45	Z45	

169	1.680	-909.03754	-716.78522	1666.25342	-1040.84973	-727.40576	1660.68359	-920.91589	-587.47394	1603.28772	-1050.04797	-599.37500	1602.96692	-976.53717	-601.77533	1447.79297	-985.30499	-582.43622	1117.80713	-979.05786	-715.25452	1377.68066	-976.89734	-763.20337	1204.75159	-1054.16321	-534.89703	1276.33093	-815.11829	-660.90070	1403.85291	-747.38556	-655.57581	1199.46643	-737.71088	-647.10046	1086.90967	-713.36133	-673.61517	939.54535	-750.76147	-741.38397	827.47400	-717.48401	-679.16754	820.34766	-712.15509	-723.73322	741.71570	-1139.59509	-665.30194	1407.79419	-1228.41638	-635.10590	1208.53198	-1244.14807	-654.49042	1087.74841	-1259.74622	-690.81049	972.96088	-1222.29822	-774.26459	848.92822	-1266.31299	-724.19458	839.81500	-1265.08521	-775.68146	773.09521	-885.08075	-768.52588	970.41919	-1104.73718	-758.81073	970.20728	-903.80798	-608.81580	988.29016	-1071.95166	-606.37677	984.85962	-825.39258	-730.23358	651.98096	-851.10950	-744.75421	489.30539	-863.44727	-709.18829	232.95082	-913.10431	-701.09601	63.59989	-961.33734	-663.64868	49.07574	-914.07690	-846.42200	34.49637	-1165.30054	-750.05939	631.88177	-1154.79614	-783.30768	508.94092	-1147.90662	-609.31805	323.59506	-1104.02490	-471.64001	199.46318	-1056.63220	-428.53088	204.34714	-1109.51660	-557.56989	72.34306	-974.30060	-619.09833	1700.62463															 
170	1.690	-908.65338	-726.03595	1666.77942	-1040.47693	-736.72021	1661.02246	-920.52277	-596.56927	1604.15234	-1049.63672	-608.49530	1603.72339	-976.10413	-610.39716	1448.48389	-984.07330	-590.92700	1118.57971	-978.37665	-723.94397	1378.26697	-975.93530	-771.67474	1205.31274	-1053.57825	-543.29871	1277.19067	-814.53467	-670.00623	1404.75781	-746.53259	-667.71484	1200.35974	-736.57141	-661.28583	1087.67456	-712.55621	-691.99573	940.85101	-750.27667	-761.81421	830.56818	-716.67529	-700.34570	821.92328	-711.38062	-747.16925	744.75891	-1138.90674	-673.95172	1408.40784	-1227.22144	-642.90582	1208.95056	-1242.32202	-661.17560	1088.02185	-1258.19495	-694.71942	972.30756	-1221.41528	-774.85663	845.72955	-1265.43103	-724.54974	838.28125	-1264.47913	-773.91669	769.92950	-883.51581	-776.39868	970.63916	-1103.43359	-767.61151	971.32672	-903.06458	-616.85010	988.73920	-1071.20593	-615.18579	985.73633	-825.00519	-735.88721	651.82440	-850.79004	-748.62396	488.94748	-863.34918	-710.47772	232.92435	-913.27167	-701.29126	63.71985	-961.43433	-663.94836	49.23515	-914.16931	-846.54578	34.38700	-1164.90723	-763.43164	633.75049	-1154.08728	-798.45233	511.70566	-1147.73364	-628.28815	322.11871	-1104.03442	-493.99823	194.26756	-1056.62500	-450.21808	197.49409	-1110.40161	-585.11359	71.19611	-974.14349	-628.44189	1701.36511															 
171	1.700	-908.38739	-735.29865	1667.27698	-1040.17029	-746.02307	1661.26941	-920.07141	-605.65985	1605.16064	-1049.37830	-617.61218	1604.38831	-975.42413	-619.11798	1449.05237	-983.02771	-599.00702	1119.35388	-977.72449	-732.52179	1378.77930	-974.97723	-780.09326	1205.83276	-1052.74585	-551.76752	1277.92358	-813.98511	-678.94958	1405.67712	-745.72156	-679.81696	1201.37109	-735.40802	-675.41180	1088.57227	-711.80298	-709.67572	942.58069	-749.84637	-782.48993	834.26984	-715.71545	-721.63562	823.91254	-710.60846	-770.83502	748.29700	-1138.18665	-682.56744	1408.95984	-1226.08105	-650.60474	1209.47449	-1240.58691	-667.64185	1088.24243	-1256.72607	-698.48297	971.74255	-1220.63074	-775.50885	842.81610	-1264.61011	-724.81555	836.89758	-1263.71631	-772.20703	767.06140	-881.86664	-784.37598	970.89905	-1101.84351	-776.24683	972.14618	-902.40350	-624.74915	989.20502	-1070.60022	-623.94189	986.61475	-824.61359	-741.55383	651.67676	-850.40033	-752.36316	488.59354	-863.16364	-712.07172	232.96484	-913.27808	-701.44464	63.91571	-961.65100	-664.18945	49.33580	-914.18207	-846.69226	34.36069	-1164.49988	-776.27673	636.10406	-1153.16321	-813.25549	514.32495	-1147.46838	-647.43274	320.11002	-1104.07617	-516.64569	188.48685	-1056.32104	-472.92361	189.68878	-1111.61865	-612.63501	69.53781	-973.89813	-637.83820	1702.05310															 
172	1.710	-908.14929	-744.55420	1667.75195	-1039.94922	-755.30182	1661.39734	-919.78192	-614.74750	1606.05054	-1049.02979	-626.80481	1604.99084	-974.86523	-627.69305	1449.60254	-982.06787	-607.64246	1119.86853	-977.04510	-741.04620	1379.23828	-973.96960	-788.51862	1206.25977	-1052.01526	-560.43030	1278.47461	-813.47394	-687.73718	1406.47522	-744.87671	-691.80688	1202.40051	-734.19757	-689.38428	1089.48877	-710.89044	-727.54224	944.40057	-749.42352	-803.15491	838.34436	-714.95380	-742.83319	826.13220	-709.98810	-794.35144	752.10907	-1137.47546	-691.24188	1409.38135	-1224.84631	-658.12061	1209.82544	-1238.89124	-673.99701	1088.33545	-1255.36267	-702.19812	971.23505	-1219.93237	-776.01605	840.01349	-1263.94568	-725.07062	835.72357	-1263.10999	-770.53290	764.42334	-880.43182	-791.82782	970.89105	-1100.54883	-785.23810	972.98419	-901.85358	-632.61377	989.53534	-1070.14197	-632.69928	987.45978	-824.24835	-746.70819	651.47675	-849.98639	-756.03546	488.30038	-862.97412	-713.58337	232.94725	-913.50000	-701.64264	63.93587	-958.55334	-661.26813	51.81937	-914.22382	-846.74561	34.22650	-1164.07849	-789.11902	638.01080	-1152.28467	-827.75360	516.90057	-1147.16772	-666.35754	317.95160	-1104.00085	-540.19202	181.98669	-1056.04016	-496.25174	181.01538	-1113.07849	-641.05530	67.61651	-973.86761	-647.35175	1702.72803															 
173	1.720	-907.92273	-753.81433	1668.13806	-1039.68030	-764.65784	1661.49097	-919.45184	-623.76184	1606.89038	-1048.71521	-635.82971	1605.59534	-974.21179	-636.34454	1450.03906	-981.31635	-615.77679	1120.15332	-976.37482	-749.60681	1379.63867	-972.93280	-796.91553	1206.62244	-1051.23169	-569.09589	1279.12695	-812.95032	-696.45197	1407.19092	-744.05548	-703.54761	1203.38306	-733.11176	-702.91498	1090.39124	-709.94159	-745.02856	946.33777	-749.11224	-823.86884	842.85577	-714.39185	-764.01831	828.66034	-709.57037	-817.78918	756.27527	-1136.99524	-699.98627	1409.87915	-1223.66785	-665.70227	1210.10974	-1237.34644	-680.14764	1088.43237	-1254.12500	-705.83588	970.71454	-1219.45142	-776.77411	837.47406	-1263.28357	-725.47412	834.72034	-1262.69165	-768.87152	761.99219	-878.87164	-799.53680	970.91956	-1099.15100	-794.07324	973.58710	-901.47656	-640.40955	989.80908	-1069.82434	-641.40692	988.20599	-824.28156	-752.37830	651.49188	-849.52240	-759.66107	487.98450	-862.73920	-715.07733	232.99297	-913.52039	-701.80402	64.01373	-959.49432	-662.33948	51.46058	-914.11475	-846.86652	34.20948	-1163.86255	-801.57159	639.92322	-1151.20544	-841.76758	519.27478	-1146.76257	-685.34918	315.42703	-1103.98682	-564.03937	174.84932	-1055.63416	-520.31689	171.64024	-1114.83044	-669.93658	65.38237	-973.78870	-656.72046	1703.31018															 
174	1.730	-907.69751	-763.02240	1668.48315	-1039.44788	-773.95313	1661.54736	-919.30450	-632.74646	1607.64661	-1048.44165	-644.95544	1606.05640	-973.67242	-645.02460	1450.46704	-980.53210	-624.08136	1120.69275	-975.72821	-758.17224	1379.93799	-971.93732	-805.25250	1206.90125	-1050.78967	-577.47076	1279.42761	-812.52234	-705.07556	1407.76025	-743.17847	-715.03998	1204.29907	-731.93799	-716.20325	1091.32813	-708.69824	-762.27496	948.66528	-748.60114	-844.27466	847.68036	-713.61554	-784.97144	831.39313	-709.27374	-841.03009	760.92529	-1136.33887	-708.67218	1409.94373	-1222.52954	-673.04675	1210.23511	-1235.81323	-686.06879	1088.39221	-1252.98657	-709.48950	970.24927	-1219.05078	-777.42896	835.02454	-1262.70935	-725.85437	833.88391	-1262.34045	-767.35291	759.80621	-877.45313	-807.00916	970.84094	-1097.68506	-802.97369	974.06219	-901.27600	-647.87756	990.06519	-1069.56299	-650.18268	988.86249	-823.54541	-757.06671	651.14075	-849.05206	-763.24603	487.69385	-862.39703	-716.55774	233.08150	-913.52704	-701.94690	64.10704	-959.46582	-662.39966	51.68527	-914.04224	-846.85876	34.12627	-1163.67957	-814.18689	641.97766	-1150.42578	-855.36737	521.70978	-1146.45313	-704.37048	312.71106	-1104.13062	-588.61053	167.32254	-1055.20911	-545.31946	161.73204	-1116.58374	-699.10663	63.06580	-974.08362	-666.21100	1703.85657															 
175	1.740	-907.55640	-772.15912	1668.68274	-1039.16333	-783.22107	1661.52393	-919.62152	-641.52148	1608.27722	-1048.24695	-654.08826	1606.28687	-972.84003	-653.74536	1450.77100	-979.84900	-632.41785	1120.86963	-975.08118	-766.77667	1380.15613	-970.92291	-813.69080	1207.08081	-1049.82861	-586.30591	1279.75549	-812.00153	-713.48602	1408.19482	-742.30566	-726.24420	1205.11841	-730.79077	-729.27209	1092.18372	-707.86133	-779.50909	950.96454	-748.30627	-864.21649	852.45929	-713.04706	-805.92566	834.38324	-708.95251	-864.25342	765.84485	-1135.83032	-717.49390	1410.07031	-1221.26563	-680.39807	1210.14600	-1234.60974	-692.46222	1088.42334	-1251.96619	-713.21967	969.75800	-1218.78772	-778.25836	832.65540	-1262.07263	-726.51660	832.96667	-1262.07373	-765.89868	757.78156	-876.09491	-814.46613	970.65771	-1096.09924	-811.79102	974.46106	-901.01703	-655.36511	990.26141	-1069.41833	-658.86096	989.44263	-823.11725	-761.89594	650.88220	-848.61786	-766.83264	487.37491	-862.27734	-717.95569	233.12639	-913.56830	-702.07037	64.24735	-959.35352	-662.31409	52.05203	-913.88910	-847.15131	34.04579	-1163.17249	-826.18567	643.57831	-1149.35876	-868.48877	523.88452	-1146.14880	-723.64410	309.63101	-1104.24438	-614.24951	159.19400	-1055.73462	-571.52350	150.98036	-1118.54980	-729.45911	60.35197	-973.93774	-675.55603	1704.26050															 
176	1.750	-907.29163	-781.33923	1668.76672	-1038.96228	-792.46484	1661.34814	-919.40790	-650.51227	1608.70581	-1048.14258	-663.20648	1606.51636	-972.39960	-662.54547	1450.98071	-979.38470	-640.58960	1121.12183	-974.47235	-775.36499	1380.28040	-969.96332	-822.11395	1207.15076	-1049.26306	-594.85895	1279.87146	-811.52637	-721.91302	1408.50146	-741.38501	-737.11896	1205.87598	-729.58496	-742.09827	1092.98010	-707.09143	-796.38409	953.04443	-748.00958	-884.14917	857.66571	-712.65607	-826.41888	837.59387	-708.75592	-887.39899	771.14764	-1135.33960	-726.24603	1409.99548	-1220.18994	-687.88428	1210.19556	-1233.35718	-698.62646	1088.22644	-1251.03455	-717.06659	969.23450	-1218.40906	-779.19403	830.69604	-1261.56787	-727.11511	832.22070	-1261.93433	-764.62952	755.94458	-874.76764	-821.89606	970.39307	-1094.69348	-820.63617	974.78479	-900.85962	-662.94263	990.38245	-1069.22021	-667.53534	989.90985	-822.84039	-767.11340	650.79724	-848.25415	-770.52814	486.99304	-862.06830	-719.65820	233.21809	-913.67389	-702.33002	64.41614	-959.91498	-663.00024	51.85921	-913.82062	-847.04797	34.00406	-1163.26221	-838.04224	645.50281	-1148.59912	-881.07764	525.98370	-1145.87524	-742.77264	306.32501	-1104.49097	-640.47241	150.74893	-1055.76013	-598.46759	140.16074	-1120.53345	-759.93011	57.75821	-973.89282	-684.85004	1704.49695															 
